<?xml version="1.0" encoding="UTF-8" standalone="no"?>
<svg width="17px" height="14px" viewBox="0 0 17 14" version="1.1" xmlns="http://www.w3.org/2000/svg" xmlns:xlink="http://www.w3.org/1999/xlink" xmlns:sketch="http://www.bohemiancoding.com/sketch/ns">
    <!-- Generator: Sketch 3.1 (8751) - http://www.bohemiancoding.com/sketch -->
    <title>icon-layers-active</title>
    <desc>Created with Sketch.</desc>
    <defs></defs>
    <g id="Home-Page" stroke="none" stroke-width="1" fill="none" fill-rule="evenodd" sketch:type="MSPage">
        <g id="Base" sketch:type="MSArtboardGroup" transform="translate(-29.000000, -149.000000)" fill="#FFFFFF">
            <g id="Sidebar" sketch:type="MSLayerGroup" transform="translate(0.000000, 72.000000)">
                <g id="Nav-Item-2" transform="translate(0.000000, 56.000000)" sketch:type="MSShapeGroup">
                    <g id="Previous-Winners-+-Shape" transform="translate(29.000000, 18.000000)">
                        <g id="layers-2" transform="translate(0.000000, 3.000000)">
                            <path d="M8.5,12.4661463 L1.59375,9.13687805 L0,9.90517073 L8.5,14.0027317 L17,9.90517073 L15.40625,9.13687805 L8.5,12.4661463 L8.5,12.4661463 Z M8.5,9.56626829 L1.59375,6.237 L0,7.00529268 L8.5,11.1028537 L17,7.00529268 L15.40625,6.237 L8.5,9.56626829 L8.5,9.56626829 Z M17,4.09756098 L8.5,0 L0,4.09756098 L8.5,8.19512195 L17,4.09756098 L17,4.09756098 Z M8.5,1.52685366 L13.8321563,4.09756098 L8.5,6.66826829 L3.16784375,4.09756098 L8.5,1.52685366 L8.5,1.52685366 Z" id="icon-layers-active"></path>
                        </g>
                    </g>
                </g>
            </g>
        </g>
    </g>
</svg>