<?xml version="1.0" encoding="UTF-8" standalone="no"?>
<svg width="15px" height="14px" viewBox="0 0 15 14" version="1.1" xmlns="http://www.w3.org/2000/svg" xmlns:xlink="http://www.w3.org/1999/xlink" xmlns:sketch="http://www.bohemiancoding.com/sketch/ns">
    <!-- Generator: Sketch 3.1 (8751) - http://www.bohemiancoding.com/sketch -->
    <title>icon-winner-active</title>
    <desc>Created with Sketch.</desc>
    <defs></defs>
    <g id="Home-Page" stroke="none" stroke-width="1" fill="none" fill-rule="evenodd" sketch:type="MSPage">
        <g id="Base" sketch:type="MSArtboardGroup" transform="translate(-29.000000, -93.000000)" fill="#FFFFFF">
            <g id="Sidebar" sketch:type="MSLayerGroup" transform="translate(0.000000, 72.000000)">
                <g id="Nav-Item" sketch:type="MSShapeGroup">
                    <g id="Winners" transform="translate(29.000000, 18.000000)">
                        <path d="M10.1048438,11.1041739 C10.810625,10.4402391 11.25,9.50923913 11.25,8.47826087 L11.25,6.65217391 C11.25,4.6351087 9.57109375,3 7.5,3 C5.42890625,3 3.75,4.6351087 3.75,6.65217391 L3.75,8.47826087 C3.75,9.50893478 4.189375,10.4396304 4.8946875,11.1037174 C2.03703125,11.5372609 0,12.6612174 0,13.9708261 L0,15.173913 C0,16.1828261 0.8390625,17 1.875,17 L13.125,17 C14.1609375,17 15,16.1828261 15,15.173913 L15,13.9755435 C15,12.666087 12.9628125,11.5386304 10.1048438,11.1041739 L10.1048438,11.1041739 Z M5,8.47826087 L5,6.65217391 C5,5.30756522 6.119375,4.2173913 7.5,4.2173913 C8.88078125,4.2173913 10,5.30756522 10,6.65217391 L10,8.47826087 C10,9.82286957 8.88078125,10.9130435 7.5,10.9130435 C6.119375,10.9130435 5,9.82286957 5,8.47826087 L5,8.47826087 Z M13.75,15.173913 C13.75,15.5096087 13.4696875,15.7826087 13.125,15.7826087 L1.875,15.7826087 C1.5303125,15.7826087 1.25,15.5096087 1.25,15.173913 L1.25,13.9708261 C1.25,13.829 1.61015625,13.3711087 2.68,12.9342174 C3.930625,12.4233696 5.6875,12.1304348 7.5,12.1304348 C9.3115625,12.1304348 11.0679688,12.4241304 12.3190625,12.9360435 C13.3895312,13.3743043 13.75,13.8331087 13.75,13.9755435 L13.75,15.173913 L13.75,15.173913 Z" id="icon-winner-active"></path>
                    </g>
                </g>
            </g>
        </g>
    </g>
</svg>