<?xml version="1.0" encoding="UTF-8" standalone="no"?>
<svg width="16px" height="16px" viewBox="0 0 16 16" version="1.1" xmlns="http://www.w3.org/2000/svg" xmlns:xlink="http://www.w3.org/1999/xlink" xmlns:sketch="http://www.bohemiancoding.com/sketch/ns">
    <!-- Generator: Sketch 3.1 (8751) - http://www.bohemiancoding.com/sketch -->
    <title>Search</title>
    <desc>Created with Sketch.</desc>
    <defs></defs>
    <g id="Home-Page" stroke="none" stroke-width="1" fill="none" fill-rule="evenodd" sketch:type="MSPage">
        <g id="Base" sketch:type="MSArtboardGroup" transform="translate(-300.000000, -28.000000)" fill="#8F85C4">
            <g id="Search-+-Search" sketch:type="MSLayerGroup" transform="translate(300.000000, 26.000000)">
                <path d="M15.6640625,15.984375 L11.984375,12.3046875 C12.7109375,11.25 13.140625,9.9609375 13.140625,8.5703125 C13.140625,4.9453125 10.1953125,2 6.5703125,2 C2.9453125,2 0,4.9453125 0,8.5703125 C0,12.1953125 2.9453125,15.140625 6.5703125,15.140625 C7.9609375,15.140625 9.25,14.7109375 10.3046875,13.984375 L13.984375,17.6640625 C14.2109375,17.890625 14.515625,18 14.8203125,18 C15.125,18 15.4296875,17.890625 15.6640625,17.6640625 C16.109375,17.1953125 16.109375,16.4453125 15.6640625,15.984375 Z M1.7109375,8.5703125 C1.7109375,5.890625 3.890625,3.7109375 6.5703125,3.7109375 C9.25,3.7109375 11.4296875,5.890625 11.4296875,8.5703125 C11.4296875,11.25 9.25,13.4296875 6.5703125,13.4296875 C3.890625,13.4296875 1.7109375,11.25 1.7109375,8.5703125 Z" id="Search" sketch:type="MSShapeGroup"></path>
            </g>
        </g>
    </g>
</svg>