<?xml version="1.0" encoding="UTF-8" standalone="no"?>
<svg width="22px" height="24px" viewBox="0 0 22 24" version="1.1" xmlns="http://www.w3.org/2000/svg" xmlns:xlink="http://www.w3.org/1999/xlink" xmlns:sketch="http://www.bohemiancoding.com/sketch/ns">
    <!-- Generator: Sketch 3.1 (8751) - http://www.bohemiancoding.com/sketch -->
    <title>power</title>
    <desc>Created with Sketch.</desc>
    <defs></defs>
    <g id="Home-Page" stroke="none" stroke-width="1" fill="none" fill-rule="evenodd" sketch:type="MSPage">
        <g id="Base" sketch:type="MSArtboardGroup" transform="translate(-1233.000000, -25.000000)" fill="#9187C5">
            <g id="Header" sketch:type="MSLayerGroup">
                <g id="Logout" transform="translate(1207.000000, 0.000000)" sketch:type="MSShapeGroup">
                    <g id="power" transform="translate(26.000000, 25.000000)">
                        <path d="M15.1345333,2.46025806 C14.6784,2.26587097 14.1445333,2.48029032 13.9487333,2.94696774 C13.7544,3.41141935 13.97,3.94932258 14.4312667,4.14593548 C17.7056,5.54745161 19.8242,8.77858065 19.8264,12.3784516 C19.8264,17.3056452 15.8642,21.3135806 10.9934,21.3135806 C6.1248,21.3135806 2.16186667,17.3056452 2.16186667,12.3784516 C2.1604,8.81419355 4.2504,5.59345161 7.4866,4.17635484 C7.94566667,3.97603226 8.15613333,3.43664516 7.95813333,2.97367742 C7.75866667,2.50848387 7.22626667,2.29629032 6.7694,2.49587097 C2.8688,4.20454839 0.350533333,8.0833871 0.352733333,12.3784516 C0.352733333,18.3139355 5.126,23.1431935 10.9934,23.1431935 C16.8615333,23.1431935 21.6355333,18.3139355 21.6355333,12.3784516 C21.6333333,8.04035484 19.0820667,4.14741935 15.1345333,2.46025806 Z M10.9934,8.84312903 C11.4935333,8.84312903 11.8983333,8.43358065 11.8983333,7.92758065 L11.8983333,1.1166129 C11.8983333,0.610612903 11.4935333,0.201064516 10.9934,0.201064516 C10.4932667,0.201064516 10.0892,0.610612903 10.0892,1.1166129 L10.0892,7.92758065 C10.0892,8.43358065 10.4932667,8.84312903 10.9934,8.84312903 Z" id="Fill-1"></path>
                    </g>
                </g>
            </g>
        </g>
    </g>
</svg>